<mxfile host="app.diagrams.net" modified="2022-04-15T11:46:45.858Z" agent="5.0 (Windows NT 10.0; WOW64) AppleWebKit/537.36 (KHTML, like Gecko) Chrome/88.0.4324.186 Safari/537.36" etag="YAQ_Hu_uHKSeWqJMYZe8" version="17.4.4" type="github">
  <diagram id="a5L7xohFr41d-8u4_TB0" name="Page-1">
    <mxGraphModel dx="1679" dy="3279" grid="1" gridSize="10" guides="1" tooltips="1" connect="1" arrows="1" fold="1" page="1" pageScale="1" pageWidth="827" pageHeight="1169" math="0" shadow="0">
      <root>
        <mxCell id="0" />
        <mxCell id="1" parent="0" />
        <mxCell id="CUQLExU0p5yGPLY8ELJB-6" value="" style="edgeStyle=orthogonalEdgeStyle;rounded=0;orthogonalLoop=1;jettySize=auto;html=1;" parent="1" source="CUQLExU0p5yGPLY8ELJB-1" target="CUQLExU0p5yGPLY8ELJB-14" edge="1">
          <mxGeometry relative="1" as="geometry">
            <mxPoint x="125" y="-1700" as="targetPoint" />
          </mxGeometry>
        </mxCell>
        <mxCell id="CUQLExU0p5yGPLY8ELJB-1" value="Start" style="rounded=1;whiteSpace=wrap;html=1;" parent="1" vertex="1">
          <mxGeometry x="65" y="-1800" width="120" height="60" as="geometry" />
        </mxCell>
        <mxCell id="CUQLExU0p5yGPLY8ELJB-3" style="edgeStyle=orthogonalEdgeStyle;rounded=0;orthogonalLoop=1;jettySize=auto;html=1;exitX=0.75;exitY=0;exitDx=0;exitDy=0;entryX=0.667;entryY=0;entryDx=0;entryDy=0;entryPerimeter=0;" parent="1" source="CUQLExU0p5yGPLY8ELJB-1" target="CUQLExU0p5yGPLY8ELJB-1" edge="1">
          <mxGeometry relative="1" as="geometry" />
        </mxCell>
        <mxCell id="CUQLExU0p5yGPLY8ELJB-4" value="1. Anmeldung&lt;br&gt;" style="text;html=1;strokeColor=none;fillColor=none;align=center;verticalAlign=middle;whiteSpace=wrap;rounded=0;" parent="1" vertex="1">
          <mxGeometry x="50" y="-1860" width="150" height="30" as="geometry" />
        </mxCell>
        <mxCell id="CUQLExU0p5yGPLY8ELJB-22" value="Nein" style="edgeStyle=orthogonalEdgeStyle;rounded=0;orthogonalLoop=1;jettySize=auto;html=1;" parent="1" source="CUQLExU0p5yGPLY8ELJB-10" target="CUQLExU0p5yGPLY8ELJB-21" edge="1">
          <mxGeometry relative="1" as="geometry" />
        </mxCell>
        <mxCell id="CUQLExU0p5yGPLY8ELJB-25" value="Ja" style="edgeStyle=orthogonalEdgeStyle;rounded=0;orthogonalLoop=1;jettySize=auto;html=1;" parent="1" source="CUQLExU0p5yGPLY8ELJB-10" target="CUQLExU0p5yGPLY8ELJB-24" edge="1">
          <mxGeometry relative="1" as="geometry" />
        </mxCell>
        <mxCell id="CUQLExU0p5yGPLY8ELJB-10" value="Username vorhanden" style="rhombus;whiteSpace=wrap;html=1;" parent="1" vertex="1">
          <mxGeometry x="80" y="-1510" width="90" height="90" as="geometry" />
        </mxCell>
        <mxCell id="CUQLExU0p5yGPLY8ELJB-14" value="Username /Email eingeben" style="shape=parallelogram;perimeter=parallelogramPerimeter;whiteSpace=wrap;html=1;fixedSize=1;" parent="1" vertex="1">
          <mxGeometry x="55" y="-1700" width="140" height="60" as="geometry" />
        </mxCell>
        <mxCell id="CUQLExU0p5yGPLY8ELJB-16" style="edgeStyle=orthogonalEdgeStyle;rounded=0;orthogonalLoop=1;jettySize=auto;html=1;exitX=0.5;exitY=1;exitDx=0;exitDy=0;" parent="1" source="CUQLExU0p5yGPLY8ELJB-14" target="CUQLExU0p5yGPLY8ELJB-17" edge="1">
          <mxGeometry relative="1" as="geometry">
            <mxPoint x="125" y="-1590" as="targetPoint" />
          </mxGeometry>
        </mxCell>
        <mxCell id="CUQLExU0p5yGPLY8ELJB-18" style="edgeStyle=orthogonalEdgeStyle;rounded=0;orthogonalLoop=1;jettySize=auto;html=1;" parent="1" source="CUQLExU0p5yGPLY8ELJB-17" target="CUQLExU0p5yGPLY8ELJB-10" edge="1">
          <mxGeometry relative="1" as="geometry" />
        </mxCell>
        <mxCell id="CUQLExU0p5yGPLY8ELJB-17" value="Passwort eingeben" style="shape=parallelogram;perimeter=parallelogramPerimeter;whiteSpace=wrap;html=1;fixedSize=1;" parent="1" vertex="1">
          <mxGeometry x="60" y="-1590" width="130" height="50" as="geometry" />
        </mxCell>
        <mxCell id="CUQLExU0p5yGPLY8ELJB-23" style="edgeStyle=orthogonalEdgeStyle;rounded=0;orthogonalLoop=1;jettySize=auto;html=1;entryX=1;entryY=0.5;entryDx=0;entryDy=0;" parent="1" source="CUQLExU0p5yGPLY8ELJB-21" target="CUQLExU0p5yGPLY8ELJB-14" edge="1">
          <mxGeometry relative="1" as="geometry">
            <Array as="points">
              <mxPoint x="340" y="-1670" />
            </Array>
          </mxGeometry>
        </mxCell>
        <mxCell id="CUQLExU0p5yGPLY8ELJB-21" value="Ausgabe: User nicht vorhanden" style="rounded=0;whiteSpace=wrap;html=1;" parent="1" vertex="1">
          <mxGeometry x="270" y="-1680" width="120" height="60" as="geometry" />
        </mxCell>
        <mxCell id="CUQLExU0p5yGPLY8ELJB-27" style="edgeStyle=orthogonalEdgeStyle;rounded=0;orthogonalLoop=1;jettySize=auto;html=1;" parent="1" source="CUQLExU0p5yGPLY8ELJB-24" target="CUQLExU0p5yGPLY8ELJB-26" edge="1">
          <mxGeometry relative="1" as="geometry" />
        </mxCell>
        <mxCell id="CUQLExU0p5yGPLY8ELJB-24" value="User existiert" style="rounded=0;whiteSpace=wrap;html=1;" parent="1" vertex="1">
          <mxGeometry x="65" y="-1380" width="120" height="50" as="geometry" />
        </mxCell>
        <mxCell id="CUQLExU0p5yGPLY8ELJB-29" value="Nein" style="edgeStyle=orthogonalEdgeStyle;rounded=0;orthogonalLoop=1;jettySize=auto;html=1;" parent="1" source="CUQLExU0p5yGPLY8ELJB-26" target="CUQLExU0p5yGPLY8ELJB-28" edge="1">
          <mxGeometry relative="1" as="geometry" />
        </mxCell>
        <mxCell id="CUQLExU0p5yGPLY8ELJB-35" value="Ja" style="edgeStyle=orthogonalEdgeStyle;rounded=0;orthogonalLoop=1;jettySize=auto;html=1;" parent="1" source="CUQLExU0p5yGPLY8ELJB-26" target="CUQLExU0p5yGPLY8ELJB-34" edge="1">
          <mxGeometry relative="1" as="geometry" />
        </mxCell>
        <mxCell id="CUQLExU0p5yGPLY8ELJB-26" value="Passwort korrekt" style="rhombus;whiteSpace=wrap;html=1;" parent="1" vertex="1">
          <mxGeometry x="85" y="-1310" width="80" height="80" as="geometry" />
        </mxCell>
        <mxCell id="CUQLExU0p5yGPLY8ELJB-40" style="edgeStyle=orthogonalEdgeStyle;rounded=0;orthogonalLoop=1;jettySize=auto;html=1;entryX=1;entryY=0.5;entryDx=0;entryDy=0;" parent="1" source="CUQLExU0p5yGPLY8ELJB-28" target="CUQLExU0p5yGPLY8ELJB-17" edge="1">
          <mxGeometry relative="1" as="geometry">
            <Array as="points">
              <mxPoint x="354" y="-1560" />
              <mxPoint x="180" y="-1560" />
            </Array>
          </mxGeometry>
        </mxCell>
        <mxCell id="CUQLExU0p5yGPLY8ELJB-28" value="Ausgabe: Passwort falsch" style="rounded=0;whiteSpace=wrap;html=1;" parent="1" vertex="1">
          <mxGeometry x="294" y="-1430" width="120" height="60" as="geometry" />
        </mxCell>
        <mxCell id="CUQLExU0p5yGPLY8ELJB-39" style="edgeStyle=orthogonalEdgeStyle;rounded=0;orthogonalLoop=1;jettySize=auto;html=1;" parent="1" source="CUQLExU0p5yGPLY8ELJB-34" target="CUQLExU0p5yGPLY8ELJB-38" edge="1">
          <mxGeometry relative="1" as="geometry" />
        </mxCell>
        <mxCell id="CUQLExU0p5yGPLY8ELJB-34" value="Anmeldung erfolgreich" style="rounded=0;whiteSpace=wrap;html=1;" parent="1" vertex="1">
          <mxGeometry x="65" y="-1180" width="120" height="60" as="geometry" />
        </mxCell>
        <mxCell id="CUQLExU0p5yGPLY8ELJB-38" value="Ende" style="rounded=1;whiteSpace=wrap;html=1;" parent="1" vertex="1">
          <mxGeometry x="65" y="-1090" width="120" height="60" as="geometry" />
        </mxCell>
        <mxCell id="CUQLExU0p5yGPLY8ELJB-41" value="1.1. Registrierung" style="text;html=1;strokeColor=none;fillColor=none;align=center;verticalAlign=middle;whiteSpace=wrap;rounded=0;" parent="1" vertex="1">
          <mxGeometry x="730" y="-1870" width="150" height="30" as="geometry" />
        </mxCell>
        <mxCell id="CUQLExU0p5yGPLY8ELJB-62" style="edgeStyle=orthogonalEdgeStyle;rounded=0;orthogonalLoop=1;jettySize=auto;html=1;" parent="1" source="CUQLExU0p5yGPLY8ELJB-42" target="CUQLExU0p5yGPLY8ELJB-63" edge="1">
          <mxGeometry relative="1" as="geometry">
            <mxPoint x="800" y="-1740" as="targetPoint" />
          </mxGeometry>
        </mxCell>
        <mxCell id="CUQLExU0p5yGPLY8ELJB-42" value="Start" style="rounded=1;whiteSpace=wrap;html=1;" parent="1" vertex="1">
          <mxGeometry x="740" y="-1820" width="120" height="60" as="geometry" />
        </mxCell>
        <mxCell id="CUQLExU0p5yGPLY8ELJB-66" style="edgeStyle=orthogonalEdgeStyle;rounded=0;orthogonalLoop=1;jettySize=auto;html=1;" parent="1" source="CUQLExU0p5yGPLY8ELJB-63" target="CUQLExU0p5yGPLY8ELJB-64" edge="1">
          <mxGeometry relative="1" as="geometry" />
        </mxCell>
        <mxCell id="CUQLExU0p5yGPLY8ELJB-63" value="Account erstellen" style="rounded=0;whiteSpace=wrap;html=1;" parent="1" vertex="1">
          <mxGeometry x="740" y="-1730" width="120" height="60" as="geometry" />
        </mxCell>
        <mxCell id="CUQLExU0p5yGPLY8ELJB-67" style="edgeStyle=orthogonalEdgeStyle;rounded=0;orthogonalLoop=1;jettySize=auto;html=1;" parent="1" source="CUQLExU0p5yGPLY8ELJB-64" target="CUQLExU0p5yGPLY8ELJB-65" edge="1">
          <mxGeometry relative="1" as="geometry" />
        </mxCell>
        <mxCell id="CUQLExU0p5yGPLY8ELJB-64" value="Email eingeben" style="shape=parallelogram;perimeter=parallelogramPerimeter;whiteSpace=wrap;html=1;fixedSize=1;" parent="1" vertex="1">
          <mxGeometry x="740" y="-1630" width="120" height="60" as="geometry" />
        </mxCell>
        <mxCell id="CUQLExU0p5yGPLY8ELJB-69" value="" style="edgeStyle=orthogonalEdgeStyle;rounded=0;orthogonalLoop=1;jettySize=auto;html=1;" parent="1" source="CUQLExU0p5yGPLY8ELJB-65" target="CUQLExU0p5yGPLY8ELJB-68" edge="1">
          <mxGeometry relative="1" as="geometry" />
        </mxCell>
        <mxCell id="CUQLExU0p5yGPLY8ELJB-65" value="Passwort eingeben" style="shape=parallelogram;perimeter=parallelogramPerimeter;whiteSpace=wrap;html=1;fixedSize=1;" parent="1" vertex="1">
          <mxGeometry x="735" y="-1530" width="130" height="60" as="geometry" />
        </mxCell>
        <mxCell id="CUQLExU0p5yGPLY8ELJB-72" value="Ja" style="edgeStyle=orthogonalEdgeStyle;rounded=0;orthogonalLoop=1;jettySize=auto;html=1;" parent="1" source="CUQLExU0p5yGPLY8ELJB-68" target="CUQLExU0p5yGPLY8ELJB-71" edge="1">
          <mxGeometry relative="1" as="geometry" />
        </mxCell>
        <mxCell id="CUQLExU0p5yGPLY8ELJB-77" value="" style="edgeStyle=orthogonalEdgeStyle;rounded=0;orthogonalLoop=1;jettySize=auto;html=1;" parent="1" source="CUQLExU0p5yGPLY8ELJB-68" target="CUQLExU0p5yGPLY8ELJB-76" edge="1">
          <mxGeometry relative="1" as="geometry" />
        </mxCell>
        <mxCell id="CUQLExU0p5yGPLY8ELJB-68" value="Konto existiert bereits" style="rhombus;whiteSpace=wrap;html=1;" parent="1" vertex="1">
          <mxGeometry x="750" y="-1450" width="100" height="100" as="geometry" />
        </mxCell>
        <mxCell id="CUQLExU0p5yGPLY8ELJB-74" value="" style="edgeStyle=orthogonalEdgeStyle;rounded=0;orthogonalLoop=1;jettySize=auto;html=1;" parent="1" source="CUQLExU0p5yGPLY8ELJB-71" target="CUQLExU0p5yGPLY8ELJB-73" edge="1">
          <mxGeometry relative="1" as="geometry" />
        </mxCell>
        <mxCell id="CUQLExU0p5yGPLY8ELJB-71" value="Ausgabe Konto existiert bereits" style="whiteSpace=wrap;html=1;" parent="1" vertex="1">
          <mxGeometry x="920" y="-1430" width="120" height="60" as="geometry" />
        </mxCell>
        <mxCell id="CUQLExU0p5yGPLY8ELJB-73" value="Ende" style="rounded=1;whiteSpace=wrap;html=1;" parent="1" vertex="1">
          <mxGeometry x="920" y="-1340" width="120" height="60" as="geometry" />
        </mxCell>
        <mxCell id="CUQLExU0p5yGPLY8ELJB-79" value="" style="edgeStyle=orthogonalEdgeStyle;rounded=0;orthogonalLoop=1;jettySize=auto;html=1;" parent="1" source="CUQLExU0p5yGPLY8ELJB-76" target="CUQLExU0p5yGPLY8ELJB-78" edge="1">
          <mxGeometry relative="1" as="geometry" />
        </mxCell>
        <mxCell id="CUQLExU0p5yGPLY8ELJB-76" value="Konto nicht vorhanden" style="whiteSpace=wrap;html=1;" parent="1" vertex="1">
          <mxGeometry x="740" y="-1320" width="120" height="60" as="geometry" />
        </mxCell>
        <mxCell id="CUQLExU0p5yGPLY8ELJB-81" value="Nein" style="edgeStyle=orthogonalEdgeStyle;rounded=0;orthogonalLoop=1;jettySize=auto;html=1;" parent="1" source="CUQLExU0p5yGPLY8ELJB-78" target="CUQLExU0p5yGPLY8ELJB-80" edge="1">
          <mxGeometry relative="1" as="geometry">
            <mxPoint x="710" y="-1190" as="targetPoint" />
          </mxGeometry>
        </mxCell>
        <mxCell id="CUQLExU0p5yGPLY8ELJB-99" value="" style="edgeStyle=orthogonalEdgeStyle;rounded=0;orthogonalLoop=1;jettySize=auto;html=1;" parent="1" source="CUQLExU0p5yGPLY8ELJB-78" target="CUQLExU0p5yGPLY8ELJB-98" edge="1">
          <mxGeometry relative="1" as="geometry" />
        </mxCell>
        <mxCell id="CUQLExU0p5yGPLY8ELJB-78" value="Email gültig" style="rhombus;whiteSpace=wrap;html=1;" parent="1" vertex="1">
          <mxGeometry x="760" y="-1230" width="80" height="80" as="geometry" />
        </mxCell>
        <mxCell id="CUQLExU0p5yGPLY8ELJB-87" style="edgeStyle=orthogonalEdgeStyle;rounded=0;orthogonalLoop=1;jettySize=auto;html=1;entryX=0;entryY=0.5;entryDx=0;entryDy=0;" parent="1" source="CUQLExU0p5yGPLY8ELJB-80" target="CUQLExU0p5yGPLY8ELJB-64" edge="1">
          <mxGeometry relative="1" as="geometry">
            <Array as="points">
              <mxPoint x="630" y="-1600" />
            </Array>
          </mxGeometry>
        </mxCell>
        <mxCell id="CUQLExU0p5yGPLY8ELJB-80" value="Ausgabe: Bitte gültige Email eingeben" style="whiteSpace=wrap;html=1;" parent="1" vertex="1">
          <mxGeometry x="570" y="-1430" width="120" height="60" as="geometry" />
        </mxCell>
        <mxCell id="CUQLExU0p5yGPLY8ELJB-83" style="edgeStyle=orthogonalEdgeStyle;rounded=0;orthogonalLoop=1;jettySize=auto;html=1;exitX=0.5;exitY=1;exitDx=0;exitDy=0;" parent="1" source="CUQLExU0p5yGPLY8ELJB-80" target="CUQLExU0p5yGPLY8ELJB-80" edge="1">
          <mxGeometry relative="1" as="geometry" />
        </mxCell>
        <mxCell id="CUQLExU0p5yGPLY8ELJB-95" style="edgeStyle=orthogonalEdgeStyle;rounded=0;orthogonalLoop=1;jettySize=auto;html=1;entryX=0.519;entryY=0.346;entryDx=0;entryDy=0;entryPerimeter=0;" parent="1" source="CUQLExU0p5yGPLY8ELJB-90" target="CUQLExU0p5yGPLY8ELJB-93" edge="1">
          <mxGeometry relative="1" as="geometry" />
        </mxCell>
        <mxCell id="CUQLExU0p5yGPLY8ELJB-90" value="Emailbestätigung senden" style="whiteSpace=wrap;html=1;" parent="1" vertex="1">
          <mxGeometry x="980" y="-1110" width="120" height="60" as="geometry" />
        </mxCell>
        <mxCell id="CUQLExU0p5yGPLY8ELJB-97" value="" style="edgeStyle=orthogonalEdgeStyle;rounded=0;orthogonalLoop=1;jettySize=auto;html=1;" parent="1" source="CUQLExU0p5yGPLY8ELJB-93" target="CUQLExU0p5yGPLY8ELJB-96" edge="1">
          <mxGeometry relative="1" as="geometry" />
        </mxCell>
        <mxCell id="CUQLExU0p5yGPLY8ELJB-93" value="Speicherung User Daten" style="shape=cylinder3;whiteSpace=wrap;html=1;boundedLbl=1;backgroundOutline=1;size=15;" parent="1" vertex="1">
          <mxGeometry x="1010" y="-1030" width="70" height="90" as="geometry" />
        </mxCell>
        <mxCell id="CUQLExU0p5yGPLY8ELJB-96" value="Ende" style="rounded=1;whiteSpace=wrap;html=1;" parent="1" vertex="1">
          <mxGeometry x="985" y="-900" width="120" height="60" as="geometry" />
        </mxCell>
        <mxCell id="CUQLExU0p5yGPLY8ELJB-101" value="" style="edgeStyle=orthogonalEdgeStyle;rounded=0;orthogonalLoop=1;jettySize=auto;html=1;" parent="1" source="CUQLExU0p5yGPLY8ELJB-98" target="CUQLExU0p5yGPLY8ELJB-100" edge="1">
          <mxGeometry relative="1" as="geometry" />
        </mxCell>
        <mxCell id="CUQLExU0p5yGPLY8ELJB-98" value="Passwort prüfen" style="whiteSpace=wrap;html=1;" parent="1" vertex="1">
          <mxGeometry x="740" y="-1120" width="120" height="60" as="geometry" />
        </mxCell>
        <mxCell id="CUQLExU0p5yGPLY8ELJB-102" value="Ja" style="edgeStyle=orthogonalEdgeStyle;rounded=0;orthogonalLoop=1;jettySize=auto;html=1;entryX=0;entryY=0.5;entryDx=0;entryDy=0;" parent="1" source="CUQLExU0p5yGPLY8ELJB-100" target="CUQLExU0p5yGPLY8ELJB-90" edge="1">
          <mxGeometry relative="1" as="geometry" />
        </mxCell>
        <mxCell id="CUQLExU0p5yGPLY8ELJB-104" value="Nein" style="edgeStyle=orthogonalEdgeStyle;rounded=0;orthogonalLoop=1;jettySize=auto;html=1;" parent="1" source="CUQLExU0p5yGPLY8ELJB-100" target="CUQLExU0p5yGPLY8ELJB-103" edge="1">
          <mxGeometry relative="1" as="geometry" />
        </mxCell>
        <mxCell id="CUQLExU0p5yGPLY8ELJB-100" value="Länge &amp;gt; 8" style="rhombus;whiteSpace=wrap;html=1;" parent="1" vertex="1">
          <mxGeometry x="760" y="-990" width="80" height="80" as="geometry" />
        </mxCell>
        <mxCell id="CUQLExU0p5yGPLY8ELJB-105" style="edgeStyle=orthogonalEdgeStyle;rounded=0;orthogonalLoop=1;jettySize=auto;html=1;" parent="1" source="CUQLExU0p5yGPLY8ELJB-103" target="CUQLExU0p5yGPLY8ELJB-65" edge="1">
          <mxGeometry relative="1" as="geometry">
            <Array as="points">
              <mxPoint x="560" y="-950" />
              <mxPoint x="560" y="-1500" />
            </Array>
          </mxGeometry>
        </mxCell>
        <mxCell id="CUQLExU0p5yGPLY8ELJB-103" value="Ausgabe Passwort zu kurz" style="whiteSpace=wrap;html=1;" parent="1" vertex="1">
          <mxGeometry x="500" y="-1160" width="120" height="60" as="geometry" />
        </mxCell>
        <mxCell id="olq20LGthkGDlswXmMEZ-1" value="1.2. Passwort vergessen" style="text;html=1;strokeColor=none;fillColor=none;align=center;verticalAlign=middle;whiteSpace=wrap;rounded=0;" parent="1" vertex="1">
          <mxGeometry x="1321" y="-1870" width="150" height="30" as="geometry" />
        </mxCell>
        <mxCell id="olq20LGthkGDlswXmMEZ-2" style="edgeStyle=orthogonalEdgeStyle;rounded=0;orthogonalLoop=1;jettySize=auto;html=1;" parent="1" source="olq20LGthkGDlswXmMEZ-3" target="olq20LGthkGDlswXmMEZ-4" edge="1">
          <mxGeometry relative="1" as="geometry">
            <mxPoint x="1391" y="-1740" as="targetPoint" />
          </mxGeometry>
        </mxCell>
        <mxCell id="olq20LGthkGDlswXmMEZ-3" value="Start" style="rounded=1;whiteSpace=wrap;html=1;" parent="1" vertex="1">
          <mxGeometry x="1331" y="-1820" width="120" height="60" as="geometry" />
        </mxCell>
        <mxCell id="olq20LGthkGDlswXmMEZ-6" value="" style="edgeStyle=orthogonalEdgeStyle;rounded=0;orthogonalLoop=1;jettySize=auto;html=1;" parent="1" source="olq20LGthkGDlswXmMEZ-4" target="olq20LGthkGDlswXmMEZ-5" edge="1">
          <mxGeometry relative="1" as="geometry" />
        </mxCell>
        <mxCell id="olq20LGthkGDlswXmMEZ-4" value="Passwort vergessen" style="rounded=0;whiteSpace=wrap;html=1;" parent="1" vertex="1">
          <mxGeometry x="1331" y="-1730" width="120" height="60" as="geometry" />
        </mxCell>
        <mxCell id="olq20LGthkGDlswXmMEZ-8" value="" style="edgeStyle=orthogonalEdgeStyle;rounded=0;orthogonalLoop=1;jettySize=auto;html=1;" parent="1" source="olq20LGthkGDlswXmMEZ-5" target="olq20LGthkGDlswXmMEZ-7" edge="1">
          <mxGeometry relative="1" as="geometry" />
        </mxCell>
        <mxCell id="olq20LGthkGDlswXmMEZ-5" value="Email eingeben" style="rounded=0;whiteSpace=wrap;html=1;" parent="1" vertex="1">
          <mxGeometry x="1331" y="-1630" width="120" height="60" as="geometry" />
        </mxCell>
        <mxCell id="olq20LGthkGDlswXmMEZ-12" value="" style="edgeStyle=orthogonalEdgeStyle;rounded=0;orthogonalLoop=1;jettySize=auto;html=1;" parent="1" source="olq20LGthkGDlswXmMEZ-7" target="olq20LGthkGDlswXmMEZ-11" edge="1">
          <mxGeometry relative="1" as="geometry" />
        </mxCell>
        <mxCell id="olq20LGthkGDlswXmMEZ-16" value="" style="edgeStyle=orthogonalEdgeStyle;rounded=0;orthogonalLoop=1;jettySize=auto;html=1;" parent="1" source="olq20LGthkGDlswXmMEZ-7" target="olq20LGthkGDlswXmMEZ-15" edge="1">
          <mxGeometry relative="1" as="geometry" />
        </mxCell>
        <mxCell id="olq20LGthkGDlswXmMEZ-7" value="Konto exisitiert" style="rhombus;whiteSpace=wrap;html=1;rounded=0;" parent="1" vertex="1">
          <mxGeometry x="1351" y="-1530" width="80" height="80" as="geometry" />
        </mxCell>
        <mxCell id="olq20LGthkGDlswXmMEZ-13" value="Nein" style="edgeStyle=orthogonalEdgeStyle;rounded=0;orthogonalLoop=1;jettySize=auto;html=1;" parent="1" source="olq20LGthkGDlswXmMEZ-11" target="olq20LGthkGDlswXmMEZ-7" edge="1">
          <mxGeometry relative="1" as="geometry" />
        </mxCell>
        <mxCell id="olq20LGthkGDlswXmMEZ-14" style="edgeStyle=orthogonalEdgeStyle;rounded=0;orthogonalLoop=1;jettySize=auto;html=1;entryX=1;entryY=0.5;entryDx=0;entryDy=0;" parent="1" source="olq20LGthkGDlswXmMEZ-11" target="olq20LGthkGDlswXmMEZ-5" edge="1">
          <mxGeometry relative="1" as="geometry">
            <Array as="points">
              <mxPoint x="1590" y="-1600" />
            </Array>
          </mxGeometry>
        </mxCell>
        <mxCell id="olq20LGthkGDlswXmMEZ-11" value="Konto existiert nicht" style="shape=parallelogram;perimeter=parallelogramPerimeter;whiteSpace=wrap;html=1;fixedSize=1;rounded=0;" parent="1" vertex="1">
          <mxGeometry x="1510" y="-1520" width="139" height="60" as="geometry" />
        </mxCell>
        <mxCell id="olq20LGthkGDlswXmMEZ-18" style="edgeStyle=orthogonalEdgeStyle;rounded=0;orthogonalLoop=1;jettySize=auto;html=1;entryX=0;entryY=0.5;entryDx=0;entryDy=0;entryPerimeter=0;" parent="1" source="olq20LGthkGDlswXmMEZ-15" target="olq20LGthkGDlswXmMEZ-17" edge="1">
          <mxGeometry relative="1" as="geometry" />
        </mxCell>
        <mxCell id="olq20LGthkGDlswXmMEZ-20" value="" style="edgeStyle=orthogonalEdgeStyle;rounded=0;orthogonalLoop=1;jettySize=auto;html=1;" parent="1" source="olq20LGthkGDlswXmMEZ-15" target="olq20LGthkGDlswXmMEZ-19" edge="1">
          <mxGeometry relative="1" as="geometry" />
        </mxCell>
        <mxCell id="olq20LGthkGDlswXmMEZ-15" value="Email an User senden" style="whiteSpace=wrap;html=1;rounded=0;" parent="1" vertex="1">
          <mxGeometry x="1331" y="-1430" width="120" height="60" as="geometry" />
        </mxCell>
        <mxCell id="olq20LGthkGDlswXmMEZ-17" value="Passwort löschen?" style="shape=cylinder3;whiteSpace=wrap;html=1;boundedLbl=1;backgroundOutline=1;size=15;" parent="1" vertex="1">
          <mxGeometry x="1540" y="-1440" width="60" height="80" as="geometry" />
        </mxCell>
        <mxCell id="xrXSfagE0BFIaKEydtMP-2" value="" style="edgeStyle=orthogonalEdgeStyle;rounded=0;orthogonalLoop=1;jettySize=auto;html=1;" edge="1" parent="1" source="olq20LGthkGDlswXmMEZ-19" target="xrXSfagE0BFIaKEydtMP-1">
          <mxGeometry relative="1" as="geometry" />
        </mxCell>
        <mxCell id="olq20LGthkGDlswXmMEZ-19" value="Neues Passwort festlegen" style="whiteSpace=wrap;html=1;rounded=0;" parent="1" vertex="1">
          <mxGeometry x="1331" y="-1330" width="120" height="60" as="geometry" />
        </mxCell>
        <mxCell id="olq20LGthkGDlswXmMEZ-21" style="edgeStyle=orthogonalEdgeStyle;rounded=0;orthogonalLoop=1;jettySize=auto;html=1;entryX=0.519;entryY=0.346;entryDx=0;entryDy=0;entryPerimeter=0;" parent="1" source="olq20LGthkGDlswXmMEZ-22" target="olq20LGthkGDlswXmMEZ-24" edge="1">
          <mxGeometry relative="1" as="geometry" />
        </mxCell>
        <mxCell id="olq20LGthkGDlswXmMEZ-22" value="Emailbestätigung senden" style="whiteSpace=wrap;html=1;" parent="1" vertex="1">
          <mxGeometry x="1571" y="-1070" width="120" height="60" as="geometry" />
        </mxCell>
        <mxCell id="olq20LGthkGDlswXmMEZ-23" value="" style="edgeStyle=orthogonalEdgeStyle;rounded=0;orthogonalLoop=1;jettySize=auto;html=1;" parent="1" source="olq20LGthkGDlswXmMEZ-24" target="olq20LGthkGDlswXmMEZ-25" edge="1">
          <mxGeometry relative="1" as="geometry" />
        </mxCell>
        <mxCell id="olq20LGthkGDlswXmMEZ-24" value="Speicherung User Daten" style="shape=cylinder3;whiteSpace=wrap;html=1;boundedLbl=1;backgroundOutline=1;size=15;" parent="1" vertex="1">
          <mxGeometry x="1601" y="-990" width="70" height="90" as="geometry" />
        </mxCell>
        <mxCell id="olq20LGthkGDlswXmMEZ-25" value="Ende" style="rounded=1;whiteSpace=wrap;html=1;" parent="1" vertex="1">
          <mxGeometry x="1576" y="-860" width="120" height="60" as="geometry" />
        </mxCell>
        <mxCell id="olq20LGthkGDlswXmMEZ-26" value="" style="edgeStyle=orthogonalEdgeStyle;rounded=0;orthogonalLoop=1;jettySize=auto;html=1;" parent="1" source="olq20LGthkGDlswXmMEZ-27" target="olq20LGthkGDlswXmMEZ-29" edge="1">
          <mxGeometry relative="1" as="geometry" />
        </mxCell>
        <mxCell id="olq20LGthkGDlswXmMEZ-27" value="Passwort prüfen" style="whiteSpace=wrap;html=1;" parent="1" vertex="1">
          <mxGeometry x="1331" y="-1080" width="120" height="60" as="geometry" />
        </mxCell>
        <mxCell id="olq20LGthkGDlswXmMEZ-28" value="Ja" style="edgeStyle=orthogonalEdgeStyle;rounded=0;orthogonalLoop=1;jettySize=auto;html=1;entryX=0;entryY=0.5;entryDx=0;entryDy=0;" parent="1" source="olq20LGthkGDlswXmMEZ-29" target="olq20LGthkGDlswXmMEZ-22" edge="1">
          <mxGeometry relative="1" as="geometry" />
        </mxCell>
        <mxCell id="olq20LGthkGDlswXmMEZ-35" value="Nein" style="edgeStyle=orthogonalEdgeStyle;rounded=0;orthogonalLoop=1;jettySize=auto;html=1;entryX=0;entryY=0.5;entryDx=0;entryDy=0;" parent="1" source="olq20LGthkGDlswXmMEZ-29" target="olq20LGthkGDlswXmMEZ-19" edge="1">
          <mxGeometry relative="1" as="geometry">
            <Array as="points">
              <mxPoint x="1260" y="-910" />
              <mxPoint x="1260" y="-1300" />
            </Array>
          </mxGeometry>
        </mxCell>
        <mxCell id="olq20LGthkGDlswXmMEZ-29" value="Länge &amp;gt; 8" style="rhombus;whiteSpace=wrap;html=1;" parent="1" vertex="1">
          <mxGeometry x="1351" y="-950" width="80" height="80" as="geometry" />
        </mxCell>
        <mxCell id="xrXSfagE0BFIaKEydtMP-4" value="Nein" style="edgeStyle=orthogonalEdgeStyle;rounded=0;orthogonalLoop=1;jettySize=auto;html=1;" edge="1" parent="1" source="xrXSfagE0BFIaKEydtMP-1" target="olq20LGthkGDlswXmMEZ-27">
          <mxGeometry relative="1" as="geometry" />
        </mxCell>
        <mxCell id="xrXSfagE0BFIaKEydtMP-9" value="Ja" style="edgeStyle=orthogonalEdgeStyle;rounded=0;orthogonalLoop=1;jettySize=auto;html=1;" edge="1" parent="1" source="xrXSfagE0BFIaKEydtMP-1" target="xrXSfagE0BFIaKEydtMP-8">
          <mxGeometry relative="1" as="geometry" />
        </mxCell>
        <mxCell id="xrXSfagE0BFIaKEydtMP-1" value="Passwort bereits verwendet" style="rhombus;whiteSpace=wrap;html=1;rounded=0;" vertex="1" parent="1">
          <mxGeometry x="1336.5" y="-1249" width="109" height="99" as="geometry" />
        </mxCell>
        <mxCell id="xrXSfagE0BFIaKEydtMP-10" style="edgeStyle=orthogonalEdgeStyle;rounded=0;orthogonalLoop=1;jettySize=auto;html=1;entryX=1;entryY=0.5;entryDx=0;entryDy=0;" edge="1" parent="1" source="xrXSfagE0BFIaKEydtMP-8" target="olq20LGthkGDlswXmMEZ-19">
          <mxGeometry relative="1" as="geometry">
            <Array as="points">
              <mxPoint x="1580" y="-1300" />
            </Array>
          </mxGeometry>
        </mxCell>
        <mxCell id="xrXSfagE0BFIaKEydtMP-8" value="Neues Passwort eingeben" style="shape=parallelogram;perimeter=parallelogramPerimeter;whiteSpace=wrap;html=1;fixedSize=1;rounded=0;" vertex="1" parent="1">
          <mxGeometry x="1520" y="-1229.5" width="120" height="60" as="geometry" />
        </mxCell>
        <mxCell id="xrXSfagE0BFIaKEydtMP-15" style="edgeStyle=orthogonalEdgeStyle;rounded=0;orthogonalLoop=1;jettySize=auto;html=1;" edge="1" parent="1" source="xrXSfagE0BFIaKEydtMP-11" target="xrXSfagE0BFIaKEydtMP-14">
          <mxGeometry relative="1" as="geometry" />
        </mxCell>
        <mxCell id="xrXSfagE0BFIaKEydtMP-11" value="Start" style="rounded=1;whiteSpace=wrap;html=1;" vertex="1" parent="1">
          <mxGeometry x="340" y="-644" width="120" height="60" as="geometry" />
        </mxCell>
        <mxCell id="xrXSfagE0BFIaKEydtMP-12" style="edgeStyle=orthogonalEdgeStyle;rounded=0;orthogonalLoop=1;jettySize=auto;html=1;exitX=0.75;exitY=0;exitDx=0;exitDy=0;entryX=0.667;entryY=0;entryDx=0;entryDy=0;entryPerimeter=0;" edge="1" parent="1" source="xrXSfagE0BFIaKEydtMP-11" target="xrXSfagE0BFIaKEydtMP-11">
          <mxGeometry relative="1" as="geometry" />
        </mxCell>
        <mxCell id="xrXSfagE0BFIaKEydtMP-13" value="2. Eingabe Modell / Verbrauch" style="text;html=1;strokeColor=none;fillColor=none;align=center;verticalAlign=middle;whiteSpace=wrap;rounded=0;" vertex="1" parent="1">
          <mxGeometry x="325" y="-704" width="150" height="30" as="geometry" />
        </mxCell>
        <mxCell id="xrXSfagE0BFIaKEydtMP-17" value="" style="edgeStyle=orthogonalEdgeStyle;rounded=0;orthogonalLoop=1;jettySize=auto;html=1;" edge="1" parent="1" source="xrXSfagE0BFIaKEydtMP-14" target="xrXSfagE0BFIaKEydtMP-16">
          <mxGeometry relative="1" as="geometry" />
        </mxCell>
        <mxCell id="xrXSfagE0BFIaKEydtMP-14" value="Auswahl Fahrtkostenrechner" style="rounded=0;whiteSpace=wrap;html=1;" vertex="1" parent="1">
          <mxGeometry x="340" y="-550" width="120" height="60" as="geometry" />
        </mxCell>
        <mxCell id="xrXSfagE0BFIaKEydtMP-19" value="" style="edgeStyle=orthogonalEdgeStyle;rounded=0;orthogonalLoop=1;jettySize=auto;html=1;" edge="1" parent="1" source="xrXSfagE0BFIaKEydtMP-16" target="xrXSfagE0BFIaKEydtMP-18">
          <mxGeometry relative="1" as="geometry" />
        </mxCell>
        <mxCell id="xrXSfagE0BFIaKEydtMP-21" value="" style="edgeStyle=orthogonalEdgeStyle;rounded=0;orthogonalLoop=1;jettySize=auto;html=1;" edge="1" parent="1" source="xrXSfagE0BFIaKEydtMP-16" target="xrXSfagE0BFIaKEydtMP-20">
          <mxGeometry relative="1" as="geometry" />
        </mxCell>
        <mxCell id="xrXSfagE0BFIaKEydtMP-16" value="Modell oder Verbrauch" style="rhombus;whiteSpace=wrap;html=1;rounded=0;" vertex="1" parent="1">
          <mxGeometry x="360" y="-420" width="80" height="80" as="geometry" />
        </mxCell>
        <mxCell id="xrXSfagE0BFIaKEydtMP-25" value="" style="edgeStyle=orthogonalEdgeStyle;rounded=0;orthogonalLoop=1;jettySize=auto;html=1;" edge="1" parent="1" source="xrXSfagE0BFIaKEydtMP-18" target="xrXSfagE0BFIaKEydtMP-24">
          <mxGeometry relative="1" as="geometry" />
        </mxCell>
        <mxCell id="xrXSfagE0BFIaKEydtMP-18" value="Modell" style="whiteSpace=wrap;html=1;rounded=0;" vertex="1" parent="1">
          <mxGeometry x="500" y="-410" width="120" height="60" as="geometry" />
        </mxCell>
        <mxCell id="xrXSfagE0BFIaKEydtMP-23" value="" style="edgeStyle=orthogonalEdgeStyle;rounded=0;orthogonalLoop=1;jettySize=auto;html=1;" edge="1" parent="1" source="xrXSfagE0BFIaKEydtMP-20" target="xrXSfagE0BFIaKEydtMP-22">
          <mxGeometry relative="1" as="geometry" />
        </mxCell>
        <mxCell id="xrXSfagE0BFIaKEydtMP-20" value="Verbrauch" style="whiteSpace=wrap;html=1;rounded=0;" vertex="1" parent="1">
          <mxGeometry x="180" y="-410" width="120" height="60" as="geometry" />
        </mxCell>
        <mxCell id="xrXSfagE0BFIaKEydtMP-27" value="" style="edgeStyle=orthogonalEdgeStyle;rounded=0;orthogonalLoop=1;jettySize=auto;html=1;" edge="1" parent="1" source="xrXSfagE0BFIaKEydtMP-22" target="xrXSfagE0BFIaKEydtMP-26">
          <mxGeometry relative="1" as="geometry" />
        </mxCell>
        <mxCell id="xrXSfagE0BFIaKEydtMP-22" value="Eingabe Verbrauch Durchschnitt 100 km" style="shape=parallelogram;perimeter=parallelogramPerimeter;whiteSpace=wrap;html=1;fixedSize=1;rounded=0;" vertex="1" parent="1">
          <mxGeometry x="165" y="-310" width="150" height="60" as="geometry" />
        </mxCell>
        <mxCell id="xrXSfagE0BFIaKEydtMP-40" value="" style="edgeStyle=orthogonalEdgeStyle;rounded=0;orthogonalLoop=1;jettySize=auto;html=1;" edge="1" parent="1" source="xrXSfagE0BFIaKEydtMP-24" target="xrXSfagE0BFIaKEydtMP-39">
          <mxGeometry relative="1" as="geometry" />
        </mxCell>
        <mxCell id="xrXSfagE0BFIaKEydtMP-24" value="Eingabe Schlagwort, ID etc." style="shape=parallelogram;perimeter=parallelogramPerimeter;whiteSpace=wrap;html=1;fixedSize=1;rounded=0;" vertex="1" parent="1">
          <mxGeometry x="485" y="-310" width="150" height="60" as="geometry" />
        </mxCell>
        <mxCell id="xrXSfagE0BFIaKEydtMP-29" value="" style="edgeStyle=orthogonalEdgeStyle;rounded=0;orthogonalLoop=1;jettySize=auto;html=1;" edge="1" parent="1" source="xrXSfagE0BFIaKEydtMP-26" target="xrXSfagE0BFIaKEydtMP-28">
          <mxGeometry relative="1" as="geometry" />
        </mxCell>
        <mxCell id="xrXSfagE0BFIaKEydtMP-31" value="Falsch" style="edgeStyle=orthogonalEdgeStyle;rounded=0;orthogonalLoop=1;jettySize=auto;html=1;" edge="1" parent="1" source="xrXSfagE0BFIaKEydtMP-26" target="xrXSfagE0BFIaKEydtMP-28">
          <mxGeometry relative="1" as="geometry" />
        </mxCell>
        <mxCell id="xrXSfagE0BFIaKEydtMP-33" value="Wahr" style="edgeStyle=orthogonalEdgeStyle;rounded=0;orthogonalLoop=1;jettySize=auto;html=1;" edge="1" parent="1" source="xrXSfagE0BFIaKEydtMP-26" target="xrXSfagE0BFIaKEydtMP-32">
          <mxGeometry relative="1" as="geometry" />
        </mxCell>
        <mxCell id="xrXSfagE0BFIaKEydtMP-26" value="Prüfung Float" style="rhombus;whiteSpace=wrap;html=1;rounded=0;" vertex="1" parent="1">
          <mxGeometry x="195" y="-185" width="90" height="90" as="geometry" />
        </mxCell>
        <mxCell id="xrXSfagE0BFIaKEydtMP-30" style="edgeStyle=orthogonalEdgeStyle;rounded=0;orthogonalLoop=1;jettySize=auto;html=1;entryX=0;entryY=0.5;entryDx=0;entryDy=0;" edge="1" parent="1" source="xrXSfagE0BFIaKEydtMP-28" target="xrXSfagE0BFIaKEydtMP-22">
          <mxGeometry relative="1" as="geometry">
            <Array as="points">
              <mxPoint x="80" y="-280" />
            </Array>
          </mxGeometry>
        </mxCell>
        <mxCell id="xrXSfagE0BFIaKEydtMP-28" value="Verbrauch erneut eingeben" style="whiteSpace=wrap;html=1;rounded=0;" vertex="1" parent="1">
          <mxGeometry x="20" y="-170" width="120" height="60" as="geometry" />
        </mxCell>
        <mxCell id="xrXSfagE0BFIaKEydtMP-36" style="edgeStyle=orthogonalEdgeStyle;rounded=0;orthogonalLoop=1;jettySize=auto;html=1;" edge="1" parent="1" source="xrXSfagE0BFIaKEydtMP-32" target="xrXSfagE0BFIaKEydtMP-34">
          <mxGeometry relative="1" as="geometry" />
        </mxCell>
        <mxCell id="xrXSfagE0BFIaKEydtMP-32" value="Verbrauch = Eingabe" style="whiteSpace=wrap;html=1;rounded=0;" vertex="1" parent="1">
          <mxGeometry x="174" y="20" width="120" height="60" as="geometry" />
        </mxCell>
        <mxCell id="xrXSfagE0BFIaKEydtMP-34" value="Ende" style="rounded=1;whiteSpace=wrap;html=1;" vertex="1" parent="1">
          <mxGeometry x="174" y="120" width="120" height="60" as="geometry" />
        </mxCell>
        <mxCell id="xrXSfagE0BFIaKEydtMP-52" value="" style="edgeStyle=orthogonalEdgeStyle;rounded=0;orthogonalLoop=1;jettySize=auto;html=1;" edge="1" parent="1" source="xrXSfagE0BFIaKEydtMP-38" target="xrXSfagE0BFIaKEydtMP-51">
          <mxGeometry relative="1" as="geometry" />
        </mxCell>
        <mxCell id="xrXSfagE0BFIaKEydtMP-38" value="API Fahrzeugmodelle" style="shape=cylinder3;whiteSpace=wrap;html=1;boundedLbl=1;backgroundOutline=1;size=15;" vertex="1" parent="1">
          <mxGeometry x="690" y="-135" width="120" height="90" as="geometry" />
        </mxCell>
        <mxCell id="xrXSfagE0BFIaKEydtMP-43" value="" style="edgeStyle=orthogonalEdgeStyle;rounded=0;orthogonalLoop=1;jettySize=auto;html=1;" edge="1" parent="1" source="xrXSfagE0BFIaKEydtMP-39" target="xrXSfagE0BFIaKEydtMP-42">
          <mxGeometry relative="1" as="geometry" />
        </mxCell>
        <mxCell id="xrXSfagE0BFIaKEydtMP-39" value="Auto-Vorschlag Suchbegriff" style="whiteSpace=wrap;html=1;rounded=0;" vertex="1" parent="1">
          <mxGeometry x="500" y="-210" width="120" height="60" as="geometry" />
        </mxCell>
        <mxCell id="xrXSfagE0BFIaKEydtMP-50" style="edgeStyle=orthogonalEdgeStyle;rounded=0;orthogonalLoop=1;jettySize=auto;html=1;" edge="1" parent="1" source="xrXSfagE0BFIaKEydtMP-42" target="xrXSfagE0BFIaKEydtMP-38">
          <mxGeometry relative="1" as="geometry" />
        </mxCell>
        <mxCell id="xrXSfagE0BFIaKEydtMP-42" value="Anfrage API" style="whiteSpace=wrap;html=1;rounded=0;" vertex="1" parent="1">
          <mxGeometry x="500" y="-120" width="120" height="60" as="geometry" />
        </mxCell>
        <mxCell id="xrXSfagE0BFIaKEydtMP-48" value="" style="edgeStyle=orthogonalEdgeStyle;rounded=0;orthogonalLoop=1;jettySize=auto;html=1;" edge="1" parent="1" source="xrXSfagE0BFIaKEydtMP-45" target="xrXSfagE0BFIaKEydtMP-47">
          <mxGeometry relative="1" as="geometry" />
        </mxCell>
        <mxCell id="xrXSfagE0BFIaKEydtMP-45" value="Rückgabe Verbrauch&lt;br&gt;" style="whiteSpace=wrap;html=1;" vertex="1" parent="1">
          <mxGeometry x="500" y="20" width="120" height="60" as="geometry" />
        </mxCell>
        <mxCell id="xrXSfagE0BFIaKEydtMP-47" value="Ende" style="rounded=1;whiteSpace=wrap;html=1;" vertex="1" parent="1">
          <mxGeometry x="500" y="120" width="120" height="60" as="geometry" />
        </mxCell>
        <mxCell id="xrXSfagE0BFIaKEydtMP-53" value="Ja" style="edgeStyle=orthogonalEdgeStyle;rounded=0;orthogonalLoop=1;jettySize=auto;html=1;" edge="1" parent="1" source="xrXSfagE0BFIaKEydtMP-51" target="xrXSfagE0BFIaKEydtMP-45">
          <mxGeometry relative="1" as="geometry" />
        </mxCell>
        <mxCell id="xrXSfagE0BFIaKEydtMP-58" value="Nein" style="edgeStyle=orthogonalEdgeStyle;rounded=0;orthogonalLoop=1;jettySize=auto;html=1;" edge="1" parent="1" source="xrXSfagE0BFIaKEydtMP-51" target="xrXSfagE0BFIaKEydtMP-57">
          <mxGeometry relative="1" as="geometry" />
        </mxCell>
        <mxCell id="xrXSfagE0BFIaKEydtMP-51" value="Treffer" style="rhombus;whiteSpace=wrap;html=1;" vertex="1" parent="1">
          <mxGeometry x="710" y="10" width="80" height="80" as="geometry" />
        </mxCell>
        <mxCell id="xrXSfagE0BFIaKEydtMP-59" style="edgeStyle=orthogonalEdgeStyle;rounded=0;orthogonalLoop=1;jettySize=auto;html=1;" edge="1" parent="1" source="xrXSfagE0BFIaKEydtMP-57" target="xrXSfagE0BFIaKEydtMP-24">
          <mxGeometry relative="1" as="geometry">
            <Array as="points">
              <mxPoint x="910" y="-280" />
            </Array>
          </mxGeometry>
        </mxCell>
        <mxCell id="xrXSfagE0BFIaKEydtMP-57" value="Kein Treffer" style="shape=parallelogram;perimeter=parallelogramPerimeter;whiteSpace=wrap;html=1;fixedSize=1;" vertex="1" parent="1">
          <mxGeometry x="850" y="20" width="120" height="60" as="geometry" />
        </mxCell>
        <mxCell id="xrXSfagE0BFIaKEydtMP-67" style="edgeStyle=orthogonalEdgeStyle;rounded=0;orthogonalLoop=1;jettySize=auto;html=1;" edge="1" parent="1" source="xrXSfagE0BFIaKEydtMP-63" target="xrXSfagE0BFIaKEydtMP-66">
          <mxGeometry relative="1" as="geometry" />
        </mxCell>
        <mxCell id="xrXSfagE0BFIaKEydtMP-63" value="Start" style="rounded=1;whiteSpace=wrap;html=1;" vertex="1" parent="1">
          <mxGeometry x="1655" y="-660" width="120" height="60" as="geometry" />
        </mxCell>
        <mxCell id="xrXSfagE0BFIaKEydtMP-64" style="edgeStyle=orthogonalEdgeStyle;rounded=0;orthogonalLoop=1;jettySize=auto;html=1;exitX=0.75;exitY=0;exitDx=0;exitDy=0;entryX=0.667;entryY=0;entryDx=0;entryDy=0;entryPerimeter=0;" edge="1" parent="1" source="xrXSfagE0BFIaKEydtMP-63" target="xrXSfagE0BFIaKEydtMP-63">
          <mxGeometry relative="1" as="geometry" />
        </mxCell>
        <mxCell id="xrXSfagE0BFIaKEydtMP-65" value="3. Fahrt Beginn" style="text;html=1;strokeColor=none;fillColor=none;align=center;verticalAlign=middle;whiteSpace=wrap;rounded=0;" vertex="1" parent="1">
          <mxGeometry x="1640" y="-720" width="150" height="30" as="geometry" />
        </mxCell>
        <mxCell id="xrXSfagE0BFIaKEydtMP-69" value="" style="edgeStyle=orthogonalEdgeStyle;rounded=0;orthogonalLoop=1;jettySize=auto;html=1;" edge="1" parent="1" source="xrXSfagE0BFIaKEydtMP-66" target="xrXSfagE0BFIaKEydtMP-68">
          <mxGeometry relative="1" as="geometry" />
        </mxCell>
        <mxCell id="xrXSfagE0BFIaKEydtMP-66" value="Fahrt beginnen" style="rounded=0;whiteSpace=wrap;html=1;" vertex="1" parent="1">
          <mxGeometry x="1655" y="-540" width="120" height="60" as="geometry" />
        </mxCell>
        <mxCell id="xrXSfagE0BFIaKEydtMP-71" value="Ja" style="edgeStyle=orthogonalEdgeStyle;rounded=0;orthogonalLoop=1;jettySize=auto;html=1;" edge="1" parent="1" source="xrXSfagE0BFIaKEydtMP-68" target="xrXSfagE0BFIaKEydtMP-70">
          <mxGeometry relative="1" as="geometry" />
        </mxCell>
        <mxCell id="xrXSfagE0BFIaKEydtMP-73" value="Nein" style="edgeStyle=orthogonalEdgeStyle;rounded=0;orthogonalLoop=1;jettySize=auto;html=1;" edge="1" parent="1" source="xrXSfagE0BFIaKEydtMP-68" target="xrXSfagE0BFIaKEydtMP-72">
          <mxGeometry relative="1" as="geometry" />
        </mxCell>
        <mxCell id="xrXSfagE0BFIaKEydtMP-68" value="Automatische Standortermittlung" style="rhombus;whiteSpace=wrap;html=1;rounded=0;" vertex="1" parent="1">
          <mxGeometry x="1653" y="-430" width="124" height="120" as="geometry" />
        </mxCell>
        <mxCell id="xrXSfagE0BFIaKEydtMP-105" value="" style="edgeStyle=orthogonalEdgeStyle;rounded=0;orthogonalLoop=1;jettySize=auto;html=1;" edge="1" parent="1" source="xrXSfagE0BFIaKEydtMP-70" target="xrXSfagE0BFIaKEydtMP-104">
          <mxGeometry relative="1" as="geometry" />
        </mxCell>
        <mxCell id="xrXSfagE0BFIaKEydtMP-70" value="Standortdaten des Gerätes ermitteln" style="whiteSpace=wrap;html=1;rounded=0;" vertex="1" parent="1">
          <mxGeometry x="1980" y="-400" width="120" height="60" as="geometry" />
        </mxCell>
        <mxCell id="xrXSfagE0BFIaKEydtMP-75" value="" style="edgeStyle=orthogonalEdgeStyle;rounded=0;orthogonalLoop=1;jettySize=auto;html=1;" edge="1" parent="1" source="xrXSfagE0BFIaKEydtMP-72" target="xrXSfagE0BFIaKEydtMP-74">
          <mxGeometry relative="1" as="geometry">
            <mxPoint x="1431" y="-329.99999999999955" as="sourcePoint" />
          </mxGeometry>
        </mxCell>
        <mxCell id="xrXSfagE0BFIaKEydtMP-72" value="Eingabe Standort manuell" style="whiteSpace=wrap;html=1;rounded=0;" vertex="1" parent="1">
          <mxGeometry x="1371" y="-400" width="120" height="60" as="geometry" />
        </mxCell>
        <mxCell id="xrXSfagE0BFIaKEydtMP-77" value="Ja" style="edgeStyle=orthogonalEdgeStyle;rounded=0;orthogonalLoop=1;jettySize=auto;html=1;" edge="1" parent="1" source="xrXSfagE0BFIaKEydtMP-74" target="xrXSfagE0BFIaKEydtMP-76">
          <mxGeometry relative="1" as="geometry">
            <Array as="points">
              <mxPoint x="1370" y="-220" />
              <mxPoint x="1370" y="-220" />
            </Array>
          </mxGeometry>
        </mxCell>
        <mxCell id="xrXSfagE0BFIaKEydtMP-81" value="Nein" style="edgeStyle=orthogonalEdgeStyle;rounded=0;orthogonalLoop=1;jettySize=auto;html=1;" edge="1" parent="1" source="xrXSfagE0BFIaKEydtMP-74" target="xrXSfagE0BFIaKEydtMP-80">
          <mxGeometry relative="1" as="geometry" />
        </mxCell>
        <mxCell id="xrXSfagE0BFIaKEydtMP-74" value="Karte klicken" style="rhombus;whiteSpace=wrap;html=1;rounded=0;" vertex="1" parent="1">
          <mxGeometry x="1391" y="-260" width="80" height="80" as="geometry" />
        </mxCell>
        <mxCell id="xrXSfagE0BFIaKEydtMP-86" value="" style="edgeStyle=orthogonalEdgeStyle;rounded=0;orthogonalLoop=1;jettySize=auto;html=1;" edge="1" parent="1" source="xrXSfagE0BFIaKEydtMP-76" target="xrXSfagE0BFIaKEydtMP-85">
          <mxGeometry relative="1" as="geometry" />
        </mxCell>
        <mxCell id="xrXSfagE0BFIaKEydtMP-76" value="Standort auf Karte anklicken" style="whiteSpace=wrap;html=1;rounded=0;" vertex="1" parent="1">
          <mxGeometry x="1211" y="-250" width="120" height="60" as="geometry" />
        </mxCell>
        <mxCell id="xrXSfagE0BFIaKEydtMP-95" value="" style="edgeStyle=orthogonalEdgeStyle;rounded=0;orthogonalLoop=1;jettySize=auto;html=1;" edge="1" parent="1" source="xrXSfagE0BFIaKEydtMP-80" target="xrXSfagE0BFIaKEydtMP-94">
          <mxGeometry relative="1" as="geometry" />
        </mxCell>
        <mxCell id="xrXSfagE0BFIaKEydtMP-80" value="Standort eingeben per Adresse" style="whiteSpace=wrap;html=1;rounded=0;" vertex="1" parent="1">
          <mxGeometry x="1535" y="-250" width="120" height="60" as="geometry" />
        </mxCell>
        <mxCell id="xrXSfagE0BFIaKEydtMP-88" value="" style="edgeStyle=orthogonalEdgeStyle;rounded=0;orthogonalLoop=1;jettySize=auto;html=1;" edge="1" parent="1" source="xrXSfagE0BFIaKEydtMP-85" target="xrXSfagE0BFIaKEydtMP-87">
          <mxGeometry relative="1" as="geometry" />
        </mxCell>
        <mxCell id="xrXSfagE0BFIaKEydtMP-85" value="Karte öffnen" style="whiteSpace=wrap;html=1;rounded=0;" vertex="1" parent="1">
          <mxGeometry x="1211" y="-160" width="120" height="60" as="geometry" />
        </mxCell>
        <mxCell id="xrXSfagE0BFIaKEydtMP-100" style="edgeStyle=orthogonalEdgeStyle;rounded=0;orthogonalLoop=1;jettySize=auto;html=1;" edge="1" parent="1" source="xrXSfagE0BFIaKEydtMP-87" target="xrXSfagE0BFIaKEydtMP-98">
          <mxGeometry relative="1" as="geometry">
            <Array as="points">
              <mxPoint x="1271" y="40" />
            </Array>
          </mxGeometry>
        </mxCell>
        <mxCell id="xrXSfagE0BFIaKEydtMP-87" value="Start-Koordinaten umwandeln" style="whiteSpace=wrap;html=1;rounded=0;" vertex="1" parent="1">
          <mxGeometry x="1211" y="-60" width="120" height="60" as="geometry" />
        </mxCell>
        <mxCell id="xrXSfagE0BFIaKEydtMP-93" value="Ende" style="rounded=1;whiteSpace=wrap;html=1;" vertex="1" parent="1">
          <mxGeometry x="1380" y="90" width="120" height="60" as="geometry" />
        </mxCell>
        <mxCell id="xrXSfagE0BFIaKEydtMP-97" value="" style="edgeStyle=orthogonalEdgeStyle;rounded=0;orthogonalLoop=1;jettySize=auto;html=1;" edge="1" parent="1" source="xrXSfagE0BFIaKEydtMP-94" target="xrXSfagE0BFIaKEydtMP-96">
          <mxGeometry relative="1" as="geometry" />
        </mxCell>
        <mxCell id="xrXSfagE0BFIaKEydtMP-94" value="Umwandlung Eingabe in Adresse" style="whiteSpace=wrap;html=1;rounded=0;" vertex="1" parent="1">
          <mxGeometry x="1535" y="-160" width="120" height="60" as="geometry" />
        </mxCell>
        <mxCell id="xrXSfagE0BFIaKEydtMP-99" style="edgeStyle=orthogonalEdgeStyle;rounded=0;orthogonalLoop=1;jettySize=auto;html=1;" edge="1" parent="1" source="xrXSfagE0BFIaKEydtMP-96" target="xrXSfagE0BFIaKEydtMP-98">
          <mxGeometry relative="1" as="geometry">
            <Array as="points">
              <mxPoint x="1595" y="30" />
            </Array>
          </mxGeometry>
        </mxCell>
        <mxCell id="xrXSfagE0BFIaKEydtMP-96" value="Adresse in Koordinaten Umwandeln" style="whiteSpace=wrap;html=1;rounded=0;" vertex="1" parent="1">
          <mxGeometry x="1535" y="-60" width="120" height="60" as="geometry" />
        </mxCell>
        <mxCell id="xrXSfagE0BFIaKEydtMP-101" style="edgeStyle=orthogonalEdgeStyle;rounded=0;orthogonalLoop=1;jettySize=auto;html=1;" edge="1" parent="1" source="xrXSfagE0BFIaKEydtMP-98" target="xrXSfagE0BFIaKEydtMP-93">
          <mxGeometry relative="1" as="geometry" />
        </mxCell>
        <mxCell id="xrXSfagE0BFIaKEydtMP-98" value="Speicherung Startkoordinaten" style="rounded=0;whiteSpace=wrap;html=1;" vertex="1" parent="1">
          <mxGeometry x="1380" width="120" height="60" as="geometry" />
        </mxCell>
        <mxCell id="xrXSfagE0BFIaKEydtMP-107" value="" style="edgeStyle=orthogonalEdgeStyle;rounded=0;orthogonalLoop=1;jettySize=auto;html=1;" edge="1" parent="1" source="xrXSfagE0BFIaKEydtMP-104" target="xrXSfagE0BFIaKEydtMP-106">
          <mxGeometry relative="1" as="geometry" />
        </mxCell>
        <mxCell id="xrXSfagE0BFIaKEydtMP-104" value="GPS, WLAN -&amp;gt; Umwandlung koordinaten" style="whiteSpace=wrap;html=1;rounded=0;" vertex="1" parent="1">
          <mxGeometry x="1980" y="-260" width="120" height="60" as="geometry" />
        </mxCell>
        <mxCell id="xrXSfagE0BFIaKEydtMP-110" style="edgeStyle=orthogonalEdgeStyle;rounded=0;orthogonalLoop=1;jettySize=auto;html=1;" edge="1" parent="1" source="xrXSfagE0BFIaKEydtMP-106" target="xrXSfagE0BFIaKEydtMP-108">
          <mxGeometry relative="1" as="geometry" />
        </mxCell>
        <mxCell id="xrXSfagE0BFIaKEydtMP-106" value="Speicherung Startkoordinaten" style="whiteSpace=wrap;html=1;rounded=0;" vertex="1" parent="1">
          <mxGeometry x="1980" y="-120" width="120" height="60" as="geometry" />
        </mxCell>
        <mxCell id="xrXSfagE0BFIaKEydtMP-108" value="Ende" style="rounded=1;whiteSpace=wrap;html=1;" vertex="1" parent="1">
          <mxGeometry x="1980" y="90" width="120" height="60" as="geometry" />
        </mxCell>
        <mxCell id="xrXSfagE0BFIaKEydtMP-111" style="edgeStyle=orthogonalEdgeStyle;rounded=0;orthogonalLoop=1;jettySize=auto;html=1;" edge="1" parent="1" source="xrXSfagE0BFIaKEydtMP-112" target="xrXSfagE0BFIaKEydtMP-115">
          <mxGeometry relative="1" as="geometry" />
        </mxCell>
        <mxCell id="xrXSfagE0BFIaKEydtMP-112" value="Start" style="rounded=1;whiteSpace=wrap;html=1;" vertex="1" parent="1">
          <mxGeometry x="2754" y="-644" width="120" height="60" as="geometry" />
        </mxCell>
        <mxCell id="xrXSfagE0BFIaKEydtMP-113" style="edgeStyle=orthogonalEdgeStyle;rounded=0;orthogonalLoop=1;jettySize=auto;html=1;exitX=0.75;exitY=0;exitDx=0;exitDy=0;entryX=0.667;entryY=0;entryDx=0;entryDy=0;entryPerimeter=0;" edge="1" parent="1" source="xrXSfagE0BFIaKEydtMP-112" target="xrXSfagE0BFIaKEydtMP-112">
          <mxGeometry relative="1" as="geometry" />
        </mxCell>
        <mxCell id="xrXSfagE0BFIaKEydtMP-114" value="4. Fahrt beenden" style="text;html=1;strokeColor=none;fillColor=none;align=center;verticalAlign=middle;whiteSpace=wrap;rounded=0;" vertex="1" parent="1">
          <mxGeometry x="2730" y="-704" width="150" height="30" as="geometry" />
        </mxCell>
        <mxCell id="xrXSfagE0BFIaKEydtMP-149" style="edgeStyle=orthogonalEdgeStyle;rounded=0;orthogonalLoop=1;jettySize=auto;html=1;" edge="1" parent="1" source="xrXSfagE0BFIaKEydtMP-115" target="xrXSfagE0BFIaKEydtMP-121">
          <mxGeometry relative="1" as="geometry" />
        </mxCell>
        <mxCell id="xrXSfagE0BFIaKEydtMP-115" value="Fahrt beenden drücken" style="rounded=0;whiteSpace=wrap;html=1;" vertex="1" parent="1">
          <mxGeometry x="2754" y="-524" width="120" height="60" as="geometry" />
        </mxCell>
        <mxCell id="xrXSfagE0BFIaKEydtMP-119" value="Ja" style="edgeStyle=orthogonalEdgeStyle;rounded=0;orthogonalLoop=1;jettySize=auto;html=1;" edge="1" parent="1" source="xrXSfagE0BFIaKEydtMP-121" target="xrXSfagE0BFIaKEydtMP-123">
          <mxGeometry relative="1" as="geometry" />
        </mxCell>
        <mxCell id="xrXSfagE0BFIaKEydtMP-120" value="Nein" style="edgeStyle=orthogonalEdgeStyle;rounded=0;orthogonalLoop=1;jettySize=auto;html=1;" edge="1" parent="1" source="xrXSfagE0BFIaKEydtMP-121" target="xrXSfagE0BFIaKEydtMP-125">
          <mxGeometry relative="1" as="geometry" />
        </mxCell>
        <mxCell id="xrXSfagE0BFIaKEydtMP-121" value="Automatische Standortermittlung" style="rhombus;whiteSpace=wrap;html=1;rounded=0;" vertex="1" parent="1">
          <mxGeometry x="2752" y="-400" width="124" height="120" as="geometry" />
        </mxCell>
        <mxCell id="xrXSfagE0BFIaKEydtMP-122" value="" style="edgeStyle=orthogonalEdgeStyle;rounded=0;orthogonalLoop=1;jettySize=auto;html=1;" edge="1" parent="1" source="xrXSfagE0BFIaKEydtMP-123" target="xrXSfagE0BFIaKEydtMP-145">
          <mxGeometry relative="1" as="geometry" />
        </mxCell>
        <mxCell id="xrXSfagE0BFIaKEydtMP-123" value="Standortdaten des Gerätes ermitteln" style="whiteSpace=wrap;html=1;rounded=0;" vertex="1" parent="1">
          <mxGeometry x="3079" y="-370" width="120" height="60" as="geometry" />
        </mxCell>
        <mxCell id="xrXSfagE0BFIaKEydtMP-124" value="" style="edgeStyle=orthogonalEdgeStyle;rounded=0;orthogonalLoop=1;jettySize=auto;html=1;" edge="1" parent="1" source="xrXSfagE0BFIaKEydtMP-125" target="xrXSfagE0BFIaKEydtMP-128">
          <mxGeometry relative="1" as="geometry">
            <mxPoint x="2530" y="-299.99999999999955" as="sourcePoint" />
          </mxGeometry>
        </mxCell>
        <mxCell id="xrXSfagE0BFIaKEydtMP-125" value="Eingabe Standort manuell" style="whiteSpace=wrap;html=1;rounded=0;" vertex="1" parent="1">
          <mxGeometry x="2470" y="-370" width="120" height="60" as="geometry" />
        </mxCell>
        <mxCell id="xrXSfagE0BFIaKEydtMP-126" value="Ja" style="edgeStyle=orthogonalEdgeStyle;rounded=0;orthogonalLoop=1;jettySize=auto;html=1;" edge="1" parent="1" source="xrXSfagE0BFIaKEydtMP-128" target="xrXSfagE0BFIaKEydtMP-130">
          <mxGeometry relative="1" as="geometry">
            <Array as="points">
              <mxPoint x="2469" y="-190" />
              <mxPoint x="2469" y="-190" />
            </Array>
          </mxGeometry>
        </mxCell>
        <mxCell id="xrXSfagE0BFIaKEydtMP-127" value="Nein" style="edgeStyle=orthogonalEdgeStyle;rounded=0;orthogonalLoop=1;jettySize=auto;html=1;" edge="1" parent="1" source="xrXSfagE0BFIaKEydtMP-128" target="xrXSfagE0BFIaKEydtMP-132">
          <mxGeometry relative="1" as="geometry" />
        </mxCell>
        <mxCell id="xrXSfagE0BFIaKEydtMP-128" value="Karte klicken" style="rhombus;whiteSpace=wrap;html=1;rounded=0;" vertex="1" parent="1">
          <mxGeometry x="2490" y="-230" width="80" height="80" as="geometry" />
        </mxCell>
        <mxCell id="xrXSfagE0BFIaKEydtMP-129" value="" style="edgeStyle=orthogonalEdgeStyle;rounded=0;orthogonalLoop=1;jettySize=auto;html=1;" edge="1" parent="1" source="xrXSfagE0BFIaKEydtMP-130" target="xrXSfagE0BFIaKEydtMP-134">
          <mxGeometry relative="1" as="geometry" />
        </mxCell>
        <mxCell id="xrXSfagE0BFIaKEydtMP-130" value="Standort auf Karte anklicken" style="whiteSpace=wrap;html=1;rounded=0;" vertex="1" parent="1">
          <mxGeometry x="2310" y="-220" width="120" height="60" as="geometry" />
        </mxCell>
        <mxCell id="xrXSfagE0BFIaKEydtMP-131" value="" style="edgeStyle=orthogonalEdgeStyle;rounded=0;orthogonalLoop=1;jettySize=auto;html=1;" edge="1" parent="1" source="xrXSfagE0BFIaKEydtMP-132" target="xrXSfagE0BFIaKEydtMP-139">
          <mxGeometry relative="1" as="geometry" />
        </mxCell>
        <mxCell id="xrXSfagE0BFIaKEydtMP-132" value="Standort eingeben per Adresse" style="whiteSpace=wrap;html=1;rounded=0;" vertex="1" parent="1">
          <mxGeometry x="2634" y="-220" width="120" height="60" as="geometry" />
        </mxCell>
        <mxCell id="xrXSfagE0BFIaKEydtMP-133" value="" style="edgeStyle=orthogonalEdgeStyle;rounded=0;orthogonalLoop=1;jettySize=auto;html=1;" edge="1" parent="1" source="xrXSfagE0BFIaKEydtMP-134" target="xrXSfagE0BFIaKEydtMP-136">
          <mxGeometry relative="1" as="geometry" />
        </mxCell>
        <mxCell id="xrXSfagE0BFIaKEydtMP-134" value="Karte öffnen" style="whiteSpace=wrap;html=1;rounded=0;" vertex="1" parent="1">
          <mxGeometry x="2310" y="-130" width="120" height="60" as="geometry" />
        </mxCell>
        <mxCell id="xrXSfagE0BFIaKEydtMP-135" style="edgeStyle=orthogonalEdgeStyle;rounded=0;orthogonalLoop=1;jettySize=auto;html=1;" edge="1" parent="1" source="xrXSfagE0BFIaKEydtMP-136" target="xrXSfagE0BFIaKEydtMP-143">
          <mxGeometry relative="1" as="geometry">
            <Array as="points">
              <mxPoint x="2370" y="70" />
            </Array>
          </mxGeometry>
        </mxCell>
        <mxCell id="xrXSfagE0BFIaKEydtMP-136" value="Start-Koordinaten umwandeln" style="whiteSpace=wrap;html=1;rounded=0;" vertex="1" parent="1">
          <mxGeometry x="2310" y="-30" width="120" height="60" as="geometry" />
        </mxCell>
        <mxCell id="xrXSfagE0BFIaKEydtMP-137" value="Ende" style="rounded=1;whiteSpace=wrap;html=1;" vertex="1" parent="1">
          <mxGeometry x="2479" y="120" width="120" height="60" as="geometry" />
        </mxCell>
        <mxCell id="xrXSfagE0BFIaKEydtMP-138" value="" style="edgeStyle=orthogonalEdgeStyle;rounded=0;orthogonalLoop=1;jettySize=auto;html=1;" edge="1" parent="1" source="xrXSfagE0BFIaKEydtMP-139" target="xrXSfagE0BFIaKEydtMP-141">
          <mxGeometry relative="1" as="geometry" />
        </mxCell>
        <mxCell id="xrXSfagE0BFIaKEydtMP-139" value="Umwandlung Eingabe in Adresse" style="whiteSpace=wrap;html=1;rounded=0;" vertex="1" parent="1">
          <mxGeometry x="2634" y="-130" width="120" height="60" as="geometry" />
        </mxCell>
        <mxCell id="xrXSfagE0BFIaKEydtMP-140" style="edgeStyle=orthogonalEdgeStyle;rounded=0;orthogonalLoop=1;jettySize=auto;html=1;" edge="1" parent="1" source="xrXSfagE0BFIaKEydtMP-141" target="xrXSfagE0BFIaKEydtMP-143">
          <mxGeometry relative="1" as="geometry">
            <Array as="points">
              <mxPoint x="2694" y="60" />
            </Array>
          </mxGeometry>
        </mxCell>
        <mxCell id="xrXSfagE0BFIaKEydtMP-141" value="Adresse in Koordinaten Umwandeln" style="whiteSpace=wrap;html=1;rounded=0;" vertex="1" parent="1">
          <mxGeometry x="2634" y="-30" width="120" height="60" as="geometry" />
        </mxCell>
        <mxCell id="xrXSfagE0BFIaKEydtMP-142" style="edgeStyle=orthogonalEdgeStyle;rounded=0;orthogonalLoop=1;jettySize=auto;html=1;" edge="1" parent="1" source="xrXSfagE0BFIaKEydtMP-143" target="xrXSfagE0BFIaKEydtMP-137">
          <mxGeometry relative="1" as="geometry" />
        </mxCell>
        <mxCell id="xrXSfagE0BFIaKEydtMP-143" value="Speicherung Endkoordinaten" style="rounded=0;whiteSpace=wrap;html=1;" vertex="1" parent="1">
          <mxGeometry x="2479" y="30" width="120" height="60" as="geometry" />
        </mxCell>
        <mxCell id="xrXSfagE0BFIaKEydtMP-144" value="" style="edgeStyle=orthogonalEdgeStyle;rounded=0;orthogonalLoop=1;jettySize=auto;html=1;" edge="1" parent="1" source="xrXSfagE0BFIaKEydtMP-145" target="xrXSfagE0BFIaKEydtMP-147">
          <mxGeometry relative="1" as="geometry" />
        </mxCell>
        <mxCell id="xrXSfagE0BFIaKEydtMP-145" value="GPS, WLAN -&amp;gt; Umwandlung koordinaten" style="whiteSpace=wrap;html=1;rounded=0;" vertex="1" parent="1">
          <mxGeometry x="3079" y="-230" width="120" height="60" as="geometry" />
        </mxCell>
        <mxCell id="xrXSfagE0BFIaKEydtMP-146" style="edgeStyle=orthogonalEdgeStyle;rounded=0;orthogonalLoop=1;jettySize=auto;html=1;" edge="1" parent="1" source="xrXSfagE0BFIaKEydtMP-147" target="xrXSfagE0BFIaKEydtMP-148">
          <mxGeometry relative="1" as="geometry" />
        </mxCell>
        <mxCell id="xrXSfagE0BFIaKEydtMP-147" value="Speicherung Endkoordinaten" style="whiteSpace=wrap;html=1;rounded=0;" vertex="1" parent="1">
          <mxGeometry x="3079" y="-90" width="120" height="60" as="geometry" />
        </mxCell>
        <mxCell id="xrXSfagE0BFIaKEydtMP-148" value="Ende" style="rounded=1;whiteSpace=wrap;html=1;" vertex="1" parent="1">
          <mxGeometry x="3079" y="120" width="120" height="60" as="geometry" />
        </mxCell>
        <mxCell id="xrXSfagE0BFIaKEydtMP-150" style="edgeStyle=orthogonalEdgeStyle;rounded=0;orthogonalLoop=1;jettySize=auto;html=1;" edge="1" parent="1" source="xrXSfagE0BFIaKEydtMP-151" target="xrXSfagE0BFIaKEydtMP-161">
          <mxGeometry relative="1" as="geometry">
            <mxPoint x="354" y="584" as="targetPoint" />
          </mxGeometry>
        </mxCell>
        <mxCell id="xrXSfagE0BFIaKEydtMP-151" value="Start" style="rounded=1;whiteSpace=wrap;html=1;" vertex="1" parent="1">
          <mxGeometry x="294" y="490" width="120" height="60" as="geometry" />
        </mxCell>
        <mxCell id="xrXSfagE0BFIaKEydtMP-152" style="edgeStyle=orthogonalEdgeStyle;rounded=0;orthogonalLoop=1;jettySize=auto;html=1;exitX=0.75;exitY=0;exitDx=0;exitDy=0;entryX=0.667;entryY=0;entryDx=0;entryDy=0;entryPerimeter=0;" edge="1" parent="1" source="xrXSfagE0BFIaKEydtMP-151" target="xrXSfagE0BFIaKEydtMP-151">
          <mxGeometry relative="1" as="geometry" />
        </mxCell>
        <mxCell id="xrXSfagE0BFIaKEydtMP-153" value="5. Berechnung Benzinpreis" style="text;html=1;strokeColor=none;fillColor=none;align=center;verticalAlign=middle;whiteSpace=wrap;rounded=0;" vertex="1" parent="1">
          <mxGeometry x="279" y="430" width="150" height="30" as="geometry" />
        </mxCell>
        <mxCell id="xrXSfagE0BFIaKEydtMP-156" value="Kommt eingetlich vor Startpunkt eingabe" style="text;html=1;strokeColor=none;fillColor=none;align=center;verticalAlign=middle;whiteSpace=wrap;rounded=0;" vertex="1" parent="1">
          <mxGeometry x="294" y="370" width="110" height="30" as="geometry" />
        </mxCell>
        <mxCell id="xrXSfagE0BFIaKEydtMP-165" value="" style="edgeStyle=orthogonalEdgeStyle;rounded=0;orthogonalLoop=1;jettySize=auto;html=1;" edge="1" parent="1" source="xrXSfagE0BFIaKEydtMP-157" target="xrXSfagE0BFIaKEydtMP-164">
          <mxGeometry relative="1" as="geometry" />
        </mxCell>
        <mxCell id="xrXSfagE0BFIaKEydtMP-157" value="Auswahl Benzin&#xa;" style="swimlane;fontStyle=0;childLayout=stackLayout;horizontal=1;startSize=30;horizontalStack=0;resizeParent=1;resizeParentMax=0;resizeLast=0;collapsible=1;marginBottom=0;" vertex="1" parent="1">
          <mxGeometry x="280" y="670" width="144" height="120" as="geometry" />
        </mxCell>
        <mxCell id="xrXSfagE0BFIaKEydtMP-158" value="Super  E5" style="text;strokeColor=none;fillColor=none;align=left;verticalAlign=middle;spacingLeft=4;spacingRight=4;overflow=hidden;points=[[0,0.5],[1,0.5]];portConstraint=eastwest;rotatable=0;" vertex="1" parent="xrXSfagE0BFIaKEydtMP-157">
          <mxGeometry y="30" width="144" height="30" as="geometry" />
        </mxCell>
        <mxCell id="xrXSfagE0BFIaKEydtMP-159" value="Super E10" style="text;strokeColor=none;fillColor=none;align=left;verticalAlign=middle;spacingLeft=4;spacingRight=4;overflow=hidden;points=[[0,0.5],[1,0.5]];portConstraint=eastwest;rotatable=0;" vertex="1" parent="xrXSfagE0BFIaKEydtMP-157">
          <mxGeometry y="60" width="144" height="30" as="geometry" />
        </mxCell>
        <mxCell id="xrXSfagE0BFIaKEydtMP-160" value="Diesel" style="text;strokeColor=none;fillColor=none;align=left;verticalAlign=middle;spacingLeft=4;spacingRight=4;overflow=hidden;points=[[0,0.5],[1,0.5]];portConstraint=eastwest;rotatable=0;" vertex="1" parent="xrXSfagE0BFIaKEydtMP-157">
          <mxGeometry y="90" width="144" height="30" as="geometry" />
        </mxCell>
        <mxCell id="xrXSfagE0BFIaKEydtMP-163" style="edgeStyle=orthogonalEdgeStyle;rounded=0;orthogonalLoop=1;jettySize=auto;html=1;" edge="1" parent="1" source="xrXSfagE0BFIaKEydtMP-161" target="xrXSfagE0BFIaKEydtMP-157">
          <mxGeometry relative="1" as="geometry" />
        </mxCell>
        <mxCell id="xrXSfagE0BFIaKEydtMP-161" value="Auswahl Benzin" style="shape=parallelogram;perimeter=parallelogramPerimeter;whiteSpace=wrap;html=1;fixedSize=1;" vertex="1" parent="1">
          <mxGeometry x="294" y="584.5" width="120" height="60" as="geometry" />
        </mxCell>
        <mxCell id="xrXSfagE0BFIaKEydtMP-169" style="edgeStyle=orthogonalEdgeStyle;rounded=0;orthogonalLoop=1;jettySize=auto;html=1;" edge="1" parent="1" source="xrXSfagE0BFIaKEydtMP-164" target="xrXSfagE0BFIaKEydtMP-168">
          <mxGeometry relative="1" as="geometry" />
        </mxCell>
        <mxCell id="xrXSfagE0BFIaKEydtMP-164" value="Abruf Startkoordinate" style="whiteSpace=wrap;html=1;fontStyle=0;startSize=30;" vertex="1" parent="1">
          <mxGeometry x="292" y="840" width="120" height="60" as="geometry" />
        </mxCell>
        <mxCell id="xrXSfagE0BFIaKEydtMP-171" value="" style="edgeStyle=orthogonalEdgeStyle;rounded=0;orthogonalLoop=1;jettySize=auto;html=1;" edge="1" parent="1" source="xrXSfagE0BFIaKEydtMP-168" target="xrXSfagE0BFIaKEydtMP-170">
          <mxGeometry relative="1" as="geometry" />
        </mxCell>
        <mxCell id="xrXSfagE0BFIaKEydtMP-168" value="Eingabe Umkreis" style="shape=parallelogram;perimeter=parallelogramPerimeter;whiteSpace=wrap;html=1;fixedSize=1;" vertex="1" parent="1">
          <mxGeometry x="294" y="930" width="120" height="60" as="geometry" />
        </mxCell>
        <mxCell id="xrXSfagE0BFIaKEydtMP-175" value="Falsch" style="edgeStyle=orthogonalEdgeStyle;rounded=0;orthogonalLoop=1;jettySize=auto;html=1;" edge="1" parent="1" source="xrXSfagE0BFIaKEydtMP-170" target="xrXSfagE0BFIaKEydtMP-174">
          <mxGeometry relative="1" as="geometry" />
        </mxCell>
        <mxCell id="xrXSfagE0BFIaKEydtMP-178" value="Wahr" style="edgeStyle=orthogonalEdgeStyle;rounded=0;orthogonalLoop=1;jettySize=auto;html=1;" edge="1" parent="1" source="xrXSfagE0BFIaKEydtMP-170" target="xrXSfagE0BFIaKEydtMP-177">
          <mxGeometry relative="1" as="geometry" />
        </mxCell>
        <mxCell id="xrXSfagE0BFIaKEydtMP-170" value="Prüfung Float" style="rhombus;whiteSpace=wrap;html=1;" vertex="1" parent="1">
          <mxGeometry x="314" y="1060" width="80" height="80" as="geometry" />
        </mxCell>
        <mxCell id="xrXSfagE0BFIaKEydtMP-176" style="edgeStyle=orthogonalEdgeStyle;rounded=0;orthogonalLoop=1;jettySize=auto;html=1;entryX=1;entryY=0.5;entryDx=0;entryDy=0;" edge="1" parent="1" source="xrXSfagE0BFIaKEydtMP-174" target="xrXSfagE0BFIaKEydtMP-168">
          <mxGeometry relative="1" as="geometry">
            <Array as="points">
              <mxPoint x="520" y="960" />
            </Array>
          </mxGeometry>
        </mxCell>
        <mxCell id="xrXSfagE0BFIaKEydtMP-174" value="Zahl eingeben" style="shape=parallelogram;perimeter=parallelogramPerimeter;whiteSpace=wrap;html=1;fixedSize=1;" vertex="1" parent="1">
          <mxGeometry x="460" y="990" width="120" height="60" as="geometry" />
        </mxCell>
        <mxCell id="xrXSfagE0BFIaKEydtMP-180" value="" style="edgeStyle=orthogonalEdgeStyle;rounded=0;orthogonalLoop=1;jettySize=auto;html=1;" edge="1" parent="1" source="xrXSfagE0BFIaKEydtMP-177" target="xrXSfagE0BFIaKEydtMP-179">
          <mxGeometry relative="1" as="geometry" />
        </mxCell>
        <mxCell id="xrXSfagE0BFIaKEydtMP-177" value="Abfrage API mit Koordinate, Benzintyp und Umkreis" style="whiteSpace=wrap;html=1;" vertex="1" parent="1">
          <mxGeometry x="294" y="1230" width="120" height="60" as="geometry" />
        </mxCell>
        <mxCell id="xrXSfagE0BFIaKEydtMP-188" value="Ja" style="edgeStyle=orthogonalEdgeStyle;rounded=0;orthogonalLoop=1;jettySize=auto;html=1;" edge="1" parent="1" source="xrXSfagE0BFIaKEydtMP-179" target="xrXSfagE0BFIaKEydtMP-184">
          <mxGeometry relative="1" as="geometry" />
        </mxCell>
        <mxCell id="xrXSfagE0BFIaKEydtMP-191" value="Nein" style="edgeStyle=orthogonalEdgeStyle;rounded=0;orthogonalLoop=1;jettySize=auto;html=1;" edge="1" parent="1" source="xrXSfagE0BFIaKEydtMP-179" target="xrXSfagE0BFIaKEydtMP-190">
          <mxGeometry relative="1" as="geometry" />
        </mxCell>
        <mxCell id="xrXSfagE0BFIaKEydtMP-179" value="IndexError" style="rhombus;whiteSpace=wrap;html=1;" vertex="1" parent="1">
          <mxGeometry x="314" y="1360" width="80" height="80" as="geometry" />
        </mxCell>
        <mxCell id="xrXSfagE0BFIaKEydtMP-189" style="edgeStyle=orthogonalEdgeStyle;rounded=0;orthogonalLoop=1;jettySize=auto;html=1;" edge="1" parent="1" source="xrXSfagE0BFIaKEydtMP-184" target="xrXSfagE0BFIaKEydtMP-168">
          <mxGeometry relative="1" as="geometry">
            <Array as="points">
              <mxPoint x="160" y="960" />
            </Array>
          </mxGeometry>
        </mxCell>
        <mxCell id="xrXSfagE0BFIaKEydtMP-184" value="Keine Tankstellen im Umkreis gefunden" style="shape=parallelogram;perimeter=parallelogramPerimeter;whiteSpace=wrap;html=1;fixedSize=1;" vertex="1" parent="1">
          <mxGeometry x="70" y="1210" width="150" height="60" as="geometry" />
        </mxCell>
        <mxCell id="xrXSfagE0BFIaKEydtMP-193" value="" style="edgeStyle=orthogonalEdgeStyle;rounded=0;orthogonalLoop=1;jettySize=auto;html=1;" edge="1" parent="1" source="xrXSfagE0BFIaKEydtMP-190" target="xrXSfagE0BFIaKEydtMP-192">
          <mxGeometry relative="1" as="geometry" />
        </mxCell>
        <mxCell id="xrXSfagE0BFIaKEydtMP-190" value="Preisvariable = günstigster Preis" style="whiteSpace=wrap;html=1;" vertex="1" parent="1">
          <mxGeometry x="294" y="1530" width="120" height="60" as="geometry" />
        </mxCell>
        <mxCell id="xrXSfagE0BFIaKEydtMP-192" value="Ende" style="rounded=1;whiteSpace=wrap;html=1;" vertex="1" parent="1">
          <mxGeometry x="294" y="1660" width="120" height="60" as="geometry" />
        </mxCell>
      </root>
    </mxGraphModel>
  </diagram>
</mxfile>
